<?xml version="1.0" encoding="utf-8"?>
<!-- Generator: Adobe Illustrator 16.0.0, SVG Export Plug-In . SVG Version: 6.00 Build 0)  -->
<!DOCTYPE svg PUBLIC "-//W3C//DTD SVG 1.1//EN" "http://www.w3.org/Graphics/SVG/1.1/DTD/svg11.dtd">
<svg version="1.1" id="Layer_1" xmlns="http://www.w3.org/2000/svg" xmlns:xlink="http://www.w3.org/1999/xlink" x="0px" y="0px"
	 width="500px" height="500px" viewBox="0 0 500 500" enable-background="new 0 0 500 500" xml:space="preserve">
<g>
	<polygon fill="none" stroke="#000000" stroke-miterlimit="10" points="154.229,321.473 154.229,321.473 154.229,321.473 	"/>
	<polygon fill="none" stroke="#000000" stroke-miterlimit="10" points="359.424,78.483 359.424,78.483 359.424,78.485 	"/>
	<linearGradient id="SVGID_1_" gradientUnits="userSpaceOnUse" x1="191.4785" y1="200.6372" x2="250.0166" y2="200.6372">
		<stop  offset="0" style="stop-color:#E99825"/>
		<stop  offset="1" style="stop-color:#F2B13F"/>
	</linearGradient>
	<polygon fill="url(#SVGID_1_)" points="250.016,130.571 249.042,130.13 191.479,182.737 231.351,261.893 250.017,271.145 	"/>
	<polygon fill="none" stroke="#000000" stroke-miterlimit="10" points="251.021,124.577 250.268,124.928 250.516,125.041 	"/>
	<linearGradient id="SVGID_2_" gradientUnits="userSpaceOnUse" x1="180.8896" y1="156.377" x2="249.0986" y2="156.377">
		<stop  offset="0" style="stop-color:#C66D2D"/>
		<stop  offset="1" style="stop-color:#D98C2B"/>
	</linearGradient>
	<polygon fill="url(#SVGID_2_)" points="248.851,130.017 180.89,161.603 191.535,182.737 249.099,130.13 	"/>
	<linearGradient id="SVGID_3_" gradientUnits="userSpaceOnUse" x1="107.8652" y1="130.5244" x2="139.8652" y2="130.5244">
		<stop  offset="0" style="stop-color:#C66D2D"/>
		<stop  offset="1" style="stop-color:#D98C2B"/>
	</linearGradient>
	<polygon fill="url(#SVGID_3_)" points="107.865,133.192 139.865,180.524 139.865,80.524 	"/>
	<linearGradient id="SVGID_4_" gradientUnits="userSpaceOnUse" x1="212.748" y1="359.8174" x2="245.9365" y2="359.8174">
		<stop  offset="0" style="stop-color:#F3BC4F"/>
		<stop  offset="1" style="stop-color:#F8DD8B"/>
	</linearGradient>
	<polygon fill="url(#SVGID_4_)" points="212.748,370.754 245.937,357.773 223.472,348.881 	"/>
	<linearGradient id="SVGID_5_" gradientUnits="userSpaceOnUse" x1="249.8652" y1="360.5898" x2="287.8848" y2="360.5898">
		<stop  offset="0" style="stop-color:#F3BC4F"/>
		<stop  offset="1" style="stop-color:#F8DD8B"/>
	</linearGradient>
	<polygon fill="url(#SVGID_5_)" points="249.865,359.33 287.885,374.379 273.992,346.801 249.865,356.238 	"/>
	<linearGradient id="SVGID_6_" gradientUnits="userSpaceOnUse" x1="252.8906" y1="156.2236" x2="315.9473" y2="156.2236">
		<stop  offset="0" style="stop-color:#C66D2D"/>
		<stop  offset="1" style="stop-color:#D98C2B"/>
	</linearGradient>
	<polygon fill="url(#SVGID_6_)" points="315.947,160.553 252.891,131.892 306.141,180.556 	"/>
	<linearGradient id="SVGID_7_" gradientUnits="userSpaceOnUse" x1="249.9736" y1="201.2163" x2="306.125" y2="201.2163">
		<stop  offset="0" style="stop-color:#C66D2D"/>
		<stop  offset="1" style="stop-color:#D98C2B"/>
	</linearGradient>
	<polygon fill="url(#SVGID_7_)" points="249.975,271.129 251.482,271.877 264.643,265.156 306.125,180.54 252.875,131.876 
		249.974,130.556 	"/>
	<polygon fill="none" stroke="#000000" stroke-miterlimit="10" points="249.864,129.192 249.864,129.192 249.865,129.192 	"/>
	<linearGradient id="SVGID_8_" gradientUnits="userSpaceOnUse" x1="249.8652" y1="327.5693" x2="273.9922" y2="327.5693">
		<stop  offset="0" style="stop-color:#C66D2D"/>
		<stop  offset="1" style="stop-color:#D98C2B"/>
	</linearGradient>
	<polygon fill="url(#SVGID_8_)" points="273.992,346.801 249.865,298.9 249.865,356.238 	"/>
	<polygon fill="none" stroke="#000000" stroke-miterlimit="10" points="250.84,119.642 250.372,120.068 250.84,119.852 	"/>
	<linearGradient id="SVGID_9_" gradientUnits="userSpaceOnUse" x1="223.4717" y1="327.3867" x2="249.8652" y2="327.3867">
		<stop  offset="0" style="stop-color:#C66D2D"/>
		<stop  offset="1" style="stop-color:#D98C2B"/>
	</linearGradient>
	<polygon fill="url(#SVGID_9_)" points="223.472,348.881 245.937,357.773 249.865,356.238 249.865,298.9 248.906,297 	"/>
	<linearGradient id="SVGID_10_" gradientUnits="userSpaceOnUse" x1="245.9434" y1="357.7705" x2="249.8721" y2="357.7705">
		<stop  offset="0" style="stop-color:#C66D2D"/>
		<stop  offset="1" style="stop-color:#D98C2B"/>
	</linearGradient>
	<polygon fill="url(#SVGID_10_)" points="245.943,357.76 249.872,359.316 249.872,356.225 	"/>
	<linearGradient id="SVGID_11_" gradientUnits="userSpaceOnUse" x1="154.2285" y1="355.8037" x2="223.4717" y2="355.8037">
		<stop  offset="0" style="stop-color:#F3BC4F"/>
		<stop  offset="1" style="stop-color:#F8DD8B"/>
	</linearGradient>
	<polygon fill="url(#SVGID_11_)" points="223.472,348.881 154.229,321.473 163.198,390.135 212.748,370.754 	"/>
	<linearGradient id="SVGID_12_" gradientUnits="userSpaceOnUse" x1="249.8652" y1="410.2607" x2="320.5313" y2="410.2607">
		<stop  offset="0" style="stop-color:#F3BC4F"/>
		<stop  offset="1" style="stop-color:#F8DD8B"/>
	</linearGradient>
	<polygon fill="url(#SVGID_12_)" points="249.865,359.33 249.865,461.191 320.531,439.191 287.885,374.379 	"/>
	<linearGradient id="SVGID_13_" gradientUnits="userSpaceOnUse" x1="163.1982" y1="404.9727" x2="212.748" y2="404.9727">
		<stop  offset="0" style="stop-color:#C66D2D"/>
		<stop  offset="1" style="stop-color:#D98C2B"/>
	</linearGradient>
	<polygon fill="url(#SVGID_13_)" points="163.198,390.135 179.198,439.191 212.748,370.754 	"/>
	<linearGradient id="SVGID_14_" gradientUnits="userSpaceOnUse" x1="179.2402" y1="409.4824" x2="249.9072" y2="409.4824">
		<stop  offset="0" style="stop-color:#C66D2D"/>
		<stop  offset="1" style="stop-color:#D98C2B"/>
	</linearGradient>
	<polygon fill="url(#SVGID_14_)" points="245.979,357.773 212.79,370.754 179.24,439.191 249.907,461.191 249.907,359.33 	"/>
	<linearGradient id="SVGID_15_" gradientUnits="userSpaceOnUse" x1="249.8652" y1="311.291" x2="345.8633" y2="311.291">
		<stop  offset="0" style="stop-color:#C66D2D"/>
		<stop  offset="1" style="stop-color:#D98C2B"/>
	</linearGradient>
	<polygon fill="url(#SVGID_15_)" points="249.865,295.045 249.865,298.9 273.992,346.801 345.863,318.691 259.309,275.781 	"/>
	<linearGradient id="SVGID_16_" gradientUnits="userSpaceOnUse" x1="273.9922" y1="378.9414" x2="345.8633" y2="378.9414">
		<stop  offset="0" style="stop-color:#E99825"/>
		<stop  offset="1" style="stop-color:#F2B13F"/>
	</linearGradient>
	<polygon fill="url(#SVGID_16_)" points="287.885,374.379 335.518,393.234 287.885,374.379 320.531,439.191 336.529,390.135 
		345.863,318.691 273.992,346.801 	"/>
	<linearGradient id="SVGID_17_" gradientUnits="userSpaceOnUse" x1="250.0166" y1="129.5044" x2="359.8633" y2="129.5044">
		<stop  offset="0" style="stop-color:#F3BC4F"/>
		<stop  offset="1" style="stop-color:#F8DD8B"/>
	</linearGradient>
	<polygon fill="url(#SVGID_17_)" points="359.424,78.483 250.017,129.331 252.766,131.845 315.822,160.506 355.031,80.524 
		315.822,160.506 359.863,180.525 359.424,78.485 	"/>
	<linearGradient id="SVGID_18_" gradientUnits="userSpaceOnUse" x1="359.4238" y1="129.5049" x2="391.8633" y2="129.5049">
		<stop  offset="0" style="stop-color:#C66D2D"/>
		<stop  offset="1" style="stop-color:#D98C2B"/>
	</linearGradient>
	<polygon fill="url(#SVGID_18_)" points="359.863,80.525 359.424,78.485 359.863,180.525 391.863,133.192 	"/>
	<linearGradient id="SVGID_19_" gradientUnits="userSpaceOnUse" x1="259.3086" y1="269.9414" x2="350.5293" y2="269.9414">
		<stop  offset="0" style="stop-color:#F3BC4F"/>
		<stop  offset="1" style="stop-color:#F8DD8B"/>
	</linearGradient>
	<polygon fill="url(#SVGID_19_)" points="259.309,275.781 345.863,318.691 350.529,221.192 264.533,265.125 	"/>
	<linearGradient id="SVGID_20_" gradientUnits="userSpaceOnUse" x1="264.5332" y1="222.8169" x2="350.5293" y2="222.8169">
		<stop  offset="0" style="stop-color:#E99825"/>
		<stop  offset="1" style="stop-color:#F2B13F"/>
	</linearGradient>
	<polygon fill="url(#SVGID_20_)" points="264.533,265.125 350.529,221.192 306.016,180.509 	"/>
	<linearGradient id="SVGID_21_" gradientUnits="userSpaceOnUse" x1="306.0137" y1="190.8911" x2="359.8594" y2="190.8911">
		<stop  offset="0" style="stop-color:#C66D2D"/>
		<stop  offset="1" style="stop-color:#D98C2B"/>
	</linearGradient>
	<polygon fill="url(#SVGID_21_)" points="306.014,180.551 350.527,221.234 359.859,180.567 315.82,160.548 	"/>
	<linearGradient id="SVGID_22_" gradientUnits="userSpaceOnUse" x1="149.1982" y1="222.2681" x2="231.1992" y2="222.2681">
		<stop  offset="0" style="stop-color:#C66D2D"/>
		<stop  offset="1" style="stop-color:#D98C2B"/>
	</linearGradient>
	<polygon fill="url(#SVGID_22_)" points="191.327,182.69 149.198,221.192 231.199,261.846 	"/>
	<linearGradient id="SVGID_23_" gradientUnits="userSpaceOnUse" x1="149.1982" y1="83.1924" x2="350.5293" y2="83.1924">
		<stop  offset="0" style="stop-color:#E99825"/>
		<stop  offset="1" style="stop-color:#F2B13F"/>
	</linearGradient>
	<polygon fill="url(#SVGID_23_)" points="249.864,40.832 249.864,129.192 249.865,129.192 350.529,37.192 149.198,37.192 
		249.864,129.192 	"/>
	<linearGradient id="SVGID_24_" gradientUnits="userSpaceOnUse" x1="140.1152" y1="121.1235" x2="248.8926" y2="121.1235">
		<stop  offset="0" style="stop-color:#C66D2D"/>
		<stop  offset="1" style="stop-color:#D98C2B"/>
	</linearGradient>
	<polygon fill="url(#SVGID_24_)" points="248.893,130.053 140.115,80.608 180.932,161.639 	"/>
	<linearGradient id="SVGID_25_" gradientUnits="userSpaceOnUse" x1="139.9375" y1="83.6641" x2="249.9365" y2="83.6641">
		<stop  offset="0" style="stop-color:#F3BC4F"/>
		<stop  offset="1" style="stop-color:#F8DD8B"/>
	</linearGradient>
	<polygon fill="url(#SVGID_25_)" points="249.469,129.702 249.937,129.275 249.937,129.275 149.271,37.275 139.938,80.607 
		248.715,130.053 	"/>
	<linearGradient id="SVGID_26_" gradientUnits="userSpaceOnUse" x1="154.2285" y1="313.4385" x2="248.9063" y2="313.4385">
		<stop  offset="0" style="stop-color:#E99825"/>
		<stop  offset="1" style="stop-color:#F2B13F"/>
	</linearGradient>
	<polygon fill="url(#SVGID_26_)" points="248.906,297 239.334,277.996 154.229,321.473 154.229,321.473 223.472,348.881 	"/>
	<linearGradient id="SVGID_27_" gradientUnits="userSpaceOnUse" x1="249.8652" y1="83.2617" x2="359.4238" y2="83.2617">
		<stop  offset="0" style="stop-color:#C66D2D"/>
		<stop  offset="1" style="stop-color:#D98C2B"/>
	</linearGradient>
	<polygon fill="url(#SVGID_27_)" points="250.017,129.331 359.424,78.483 350.529,37.192 249.865,129.192 	"/>
	<linearGradient id="SVGID_28_" gradientUnits="userSpaceOnUse" x1="139.8652" y1="130.5244" x2="180.6816" y2="130.5244">
		<stop  offset="0" style="stop-color:#C66D2D"/>
		<stop  offset="1" style="stop-color:#D98C2B"/>
	</linearGradient>
	<polygon fill="url(#SVGID_28_)" points="139.865,80.524 139.865,180.524 180.682,161.556 	"/>
	<linearGradient id="SVGID_29_" gradientUnits="userSpaceOnUse" x1="149.1982" y1="271.332" x2="239.334" y2="271.332">
		<stop  offset="0" style="stop-color:#C66D2D"/>
		<stop  offset="1" style="stop-color:#D98C2B"/>
	</linearGradient>
	<polygon fill="url(#SVGID_29_)" points="231.199,261.846 149.198,221.192 153.865,318.691 154.229,321.473 239.334,277.996 	"/>
	<linearGradient id="SVGID_30_" gradientUnits="userSpaceOnUse" x1="139.8652" y1="191.374" x2="191.3271" y2="191.374">
		<stop  offset="0" style="stop-color:#F3BC4F"/>
		<stop  offset="1" style="stop-color:#F8DD8B"/>
	</linearGradient>
	<polygon fill="url(#SVGID_30_)" points="180.682,161.556 139.865,180.524 149.198,221.192 191.327,182.69 	"/>
	<linearGradient id="SVGID_31_" gradientUnits="userSpaceOnUse" x1="239.3018" y1="284.8193" x2="249.8311" y2="284.8193">
		<stop  offset="0" style="stop-color:#C66D2D"/>
		<stop  offset="1" style="stop-color:#D98C2B"/>
	</linearGradient>
	<polygon fill="url(#SVGID_31_)" points="239.302,278.007 248.874,297.011 249.831,295.056 249.831,272.628 	"/>
	<linearGradient id="SVGID_32_" gradientUnits="userSpaceOnUse" x1="251.3564" y1="270.4531" x2="264.5166" y2="270.4531">
		<stop  offset="0" style="stop-color:#C66D2D"/>
		<stop  offset="1" style="stop-color:#D98C2B"/>
	</linearGradient>
	<polygon fill="url(#SVGID_32_)" points="259.292,275.781 264.517,265.125 251.356,271.846 	"/>
	<linearGradient id="SVGID_33_" gradientUnits="userSpaceOnUse" x1="231.1758" y1="269.9209" x2="249.8418" y2="269.9209">
		<stop  offset="0" style="stop-color:#C66D2D"/>
		<stop  offset="1" style="stop-color:#D98C2B"/>
	</linearGradient>
	<polygon fill="url(#SVGID_33_)" points="249.842,271.098 231.176,261.846 239.313,277.996 249.842,272.617 	"/>
	<linearGradient id="SVGID_34_" gradientUnits="userSpaceOnUse" x1="249.8457" y1="283.4355" x2="259.291" y2="283.4355">
		<stop  offset="0" style="stop-color:#C66D2D"/>
		<stop  offset="1" style="stop-color:#D98C2B"/>
	</linearGradient>
	<polygon fill="url(#SVGID_34_)" points="249.846,272.607 249.846,295.035 259.291,275.771 251.355,271.836 	"/>
	<linearGradient id="SVGID_35_" gradientUnits="userSpaceOnUse" x1="249.8418" y1="271.8525" x2="251.3105" y2="271.8525">
		<stop  offset="0" style="stop-color:#C66D2D"/>
		<stop  offset="1" style="stop-color:#D98C2B"/>
	</linearGradient>
	<polyline fill="url(#SVGID_35_)" points="249.842,271.098 249.846,272.607 251.311,271.846 	"/>
	<linearGradient id="SVGID_36_" gradientUnits="userSpaceOnUse" x1="248.9063" y1="296.9678" x2="249.8652" y2="296.9678">
		<stop  offset="0" style="stop-color:#C66D2D"/>
		<stop  offset="1" style="stop-color:#D98C2B"/>
	</linearGradient>
	<polyline fill="url(#SVGID_36_)" points="248.906,297 249.865,298.9 249.846,295.035 	"/>
	<linearGradient id="SVGID_37_" gradientUnits="userSpaceOnUse" x1="248.8506" y1="130.5356" x2="252.6943" y2="130.5356">
		<stop  offset="0" style="stop-color:#C66D2D"/>
		<stop  offset="1" style="stop-color:#D98C2B"/>
	</linearGradient>
	<polyline fill="url(#SVGID_37_)" points="248.851,130.017 252.694,131.796 249.937,129.275 	"/>
</g>
</svg>
